# xmcd
#
# Track frame offsets:
#	150
#	36153
#	67019
#	100411
#	157082
#
# Disc length: 3133 seconds
#
# Revision: 0
# Processed by: cddbd v1.5.2PL0 Copyright (c) Steve Scherf et al.
# Submitted via: audiograbber 1.83.01
#
DISCID=420c3b05
DTITLE=Grateful Dead - 93-09-12 The Spectrum, Philadelphia PA
DYEAR=1900
DGENRE=
TTITLE0=Samson and Delilah
TTITLE1=Lazy River Road
TTITLE2=Truckin'
TTITLE3=He's Gone
TTITLE4=Drums
EXTD=
EXTT0=
EXTT1=
EXTT2=
EXTT3=
EXTT4=
PLAYORDER=
